<?xml version="1.0" encoding="utf-8"?>
<!-- Generator: Adobe Illustrator 15.1.0, SVG Export Plug-In . SVG Version: 6.00 Build 0)  -->
<!DOCTYPE svg PUBLIC "-//W3C//DTD SVG 1.1 Tiny//EN" "http://www.w3.org/Graphics/SVG/1.1/DTD/svg11-tiny.dtd">
<svg version="1.1" baseProfile="tiny" id="Layer_1" xmlns="http://www.w3.org/2000/svg" xmlns:xlink="http://www.w3.org/1999/xlink"
	 x="0px" y="0px" width="40px" height="80px" viewBox="0 0 40 80" xml:space="preserve">
<g>
	<polygon points="0,0.2 0,7.3 7.3,0 0.2,0 	"/>
	<polygon points="21.7,0 14.5,0 0,14.5 0,21.7 	"/>
	<polygon points="36.1,0 28.9,0 0,28.9 0,36.1 	"/>
	<polygon points="0,43.2 0,50.4 40,10.4 40,3.2 	"/>
	<polygon points="40,23.4 40,16.2 0,56.2 0,63.4 	"/>
	<polygon points="40,37.7 40,30.5 0,70.5 0,77.7 	"/>
	<polygon points="4.9,80 12.1,80 40,52.1 40,44.9 	"/>
	<polygon points="40,66.5 40,59.3 19.3,80 26.5,80 	"/>
	<polygon points="40,73.6 33.6,80 40,80 	"/>
</g>
</svg>
